<svg width="40" height="40" viewBox="0 0 40 40" fill="none" xmlns="http://www.w3.org/2000/svg">
<g clip-path="url(#clip0_2196_2206)">
<path d="M39.9956 17.5638C39.4726 13.1194 37.4347 8.92178 34.2573 5.74421C31.0799 2.56664 26.8824 0.528514 22.4379 0.00531195C22.2161 -0.0206255 21.9943 0.0492181 21.8275 0.197421C21.6608 0.345702 21.5654 0.558202 21.5654 0.781248V7.58483C21.5654 8.01623 21.9153 8.36608 22.3467 8.36608C22.7781 8.36608 23.1279 8.01623 23.1279 7.58483V1.68046C30.946 2.97312 37.0283 9.05576 38.3205 16.8739H23.1279V12.9747C23.1279 12.5433 22.7781 12.1935 22.3467 12.1935C21.9153 12.1935 21.5654 12.5433 21.5654 12.9747V17.6551C21.5654 18.0865 21.9153 18.4364 22.3467 18.4364H39.2198C39.4428 18.4364 39.6553 18.3411 39.8034 18.1743C39.9516 18.0075 40.0217 17.7854 39.9956 17.5638Z" fill="#7772F1"/>
<path d="M22.3467 9.45508C21.9153 9.45508 21.5654 9.80492 21.5654 10.2363V10.257C21.5654 10.6884 21.9153 11.0382 22.3467 11.0382C22.7782 11.0382 23.1279 10.6884 23.1279 10.257V10.2363C23.1279 9.80492 22.7781 9.45508 22.3467 9.45508Z" fill="#7772F1"/>
<path d="M18.4044 34.592C15.2513 34.5158 12.2664 33.4405 9.77262 31.4824C9.43309 31.2157 8.94207 31.2749 8.67567 31.6143C8.4091 31.9537 8.46825 32.4448 8.80762 32.7113C11.5685 34.8791 14.8739 36.0695 18.3667 36.154C18.3731 36.1541 18.3795 36.1542 18.3859 36.1542C18.8085 36.1542 19.1562 35.8168 19.1666 35.3919C19.1771 34.9606 18.8357 34.6025 18.4044 34.592Z" fill="#7772F1"/>
<path d="M21.394 35.1722C21.3428 34.7437 20.9537 34.4379 20.5257 34.489L20.5091 34.4909C20.0807 34.542 19.7748 34.9308 19.8259 35.3592C19.8732 35.7562 20.2105 36.0479 20.6007 36.0479C20.6316 36.0479 20.6628 36.0461 20.6942 36.0424L20.7108 36.0404C21.1392 35.9893 21.4451 35.6006 21.394 35.1722Z" fill="#7772F1"/>
<path d="M37.0312 20.3125C37.0174 20.3125 37.0036 20.3129 36.99 20.3136H19.6875V2.96875C19.6875 2.53734 19.3376 2.1875 18.9062 2.1875C13.8561 2.1875 9.10842 4.15414 5.53749 7.72499C1.96664 11.2959 0 16.0436 0 21.0937C0 26.1438 1.96664 30.8915 5.53749 34.4624C9.10842 38.0333 13.8561 39.9999 18.9062 39.9999C23.9563 39.9999 28.704 38.0333 32.2749 34.4624C35.8458 30.8915 37.8124 26.1438 37.8124 21.0937C37.8124 20.6622 37.4626 20.3125 37.0312 20.3125ZM18.9062 38.4374C9.34287 38.4374 1.5625 30.6571 1.5625 21.0937C1.5625 11.7924 8.92311 4.17773 18.125 3.76742V21.0948C18.125 21.355 18.2527 21.5849 18.4483 21.7268C18.4482 21.7271 18.4481 21.7273 18.448 21.7275L32.4738 31.885C29.2935 35.8753 24.3937 38.4374 18.9062 38.4374ZM33.3918 30.6206L21.317 21.8761H36.2325C36.0889 25.0953 35.0627 28.0885 33.3918 30.6206Z" fill="#7772F1"/>
</g>
<defs>
<clipPath id="clip0_2196_2206">
<rect width="40" height="40" fill="white"/>
</clipPath>
</defs>
</svg>
